<?xml version="1.0" standalone="no"?>
<!DOCTYPE svg PUBLIC "-//W3C//DTD SVG 20010904//EN"
 "http://www.w3.org/TR/2001/REC-SVG-20010904/DTD/svg10.dtd">
<svg version="1.0" xmlns="http://www.w3.org/2000/svg"
 width="600.000000pt" height="600.000000pt" viewBox="0 0 600.000000 600.000000"
 preserveAspectRatio="xMidYMid meet">
<metadata>
Created by potrace 1.14, written by Peter Selinger 2001-2017
</metadata>
<g transform="translate(0.000000,600.000000) scale(0.100000,-0.100000)"
fill="#000000" stroke="none">
<path d="M2877 5974 c-1 -1 -61 -9 -133 -18 -186 -22 -474 -114 -622 -198
-344 -196 -534 -374 -729 -683 -27 -43 -133 -263 -153 -320 -51 -137 -81 -232
-86 -270 -3 -22 -9 -58 -15 -80 -5 -22 -13 -105 -18 -185 -15 -241 13 -444 90
-663 81 -232 152 -363 314 -582 97 -132 196 -222 425 -385 103 -74 381 -210
429 -210 32 0 68 27 80 60 22 64 -27 132 -114 160 -63 20 -227 104 -301 155
-377 259 -609 599 -710 1040 -60 268 -54 494 23 745 61 202 154 399 248 522
27 36 59 79 70 95 60 85 248 256 353 323 30 18 59 38 65 45 12 10 40 26 159
86 132 66 337 129 504 154 480 72 1023 -93 1383 -419 80 -72 211 -209 211
-220 0 -4 21 -34 48 -69 26 -34 55 -78 66 -97 95 -180 119 -229 149 -307 20
-50 48 -140 64 -199 27 -105 28 -118 27 -334 0 -244 -11 -327 -60 -470 -63
-180 -143 -330 -278 -516 -81 -112 -266 -288 -388 -367 -31 -21 -64 -44 -72
-53 -9 -8 -64 -37 -123 -65 -172 -79 -176 -82 -207 -127 -30 -43 -30 -43 -12
-76 18 -33 70 -66 107 -66 10 0 36 10 57 23 20 13 98 57 172 97 117 64 284
178 358 244 73 65 194 188 229 231 91 114 197 290 271 455 44 95 83 214 92
278 5 31 16 98 24 147 9 50 19 151 22 225 6 114 3 154 -16 260 -12 69 -26 145
-30 170 -19 118 -150 432 -229 549 -9 14 -38 58 -64 96 -207 315 -565 592
-909 706 -223 74 -249 80 -458 99 -168 16 -304 22 -313 14z"/>
<path d="M2810 5455 c-94 -12 -173 -34 -325 -91 -85 -32 -230 -121 -349 -213
-22 -17 -175 -170 -191 -192 -71 -93 -101 -140 -155 -247 -55 -112 -77 -173
-107 -297 -25 -100 -27 -128 -28 -310 0 -185 2 -208 27 -310 38 -149 73 -235
167 -400 81 -142 254 -318 401 -409 25 -15 70 -43 100 -62 68 -42 108 -51 148
-30 34 17 42 33 42 80 0 48 -25 74 -148 149 -137 83 -196 135 -309 267 -110
129 -211 346 -238 516 -37 232 -7 486 80 665 14 29 25 56 25 61 0 8 60 110 70
118 4 3 22 28 40 55 54 80 188 204 298 278 55 37 107 67 114 67 8 0 18 4 24 9
5 5 54 26 109 46 470 177 992 27 1318 -378 153 -189 262 -452 274 -662 6 -91
-10 -221 -41 -338 -14 -53 -73 -201 -97 -247 -85 -157 -258 -343 -414 -445
-123 -80 -145 -101 -145 -141 0 -45 42 -94 82 -94 101 0 430 268 557 455 169
249 234 459 233 760 0 220 -33 359 -135 577 -160 341 -497 628 -862 733 -131
37 -400 52 -565 30z"/>
<path d="M2894 4980 c-88 -13 -183 -48 -289 -105 -100 -55 -113 -64 -200 -150
-111 -109 -176 -226 -227 -410 -18 -66 -22 -105 -22 -225 1 -127 4 -156 27
-230 36 -121 72 -202 124 -284 125 -194 235 -262 306 -188 47 49 38 82 -45
168 -83 85 -115 129 -169 237 -87 171 -91 404 -12 588 37 85 74 139 142 206
52 51 218 163 241 163 6 0 39 10 73 22 90 32 232 29 347 -6 298 -92 493 -337
507 -637 5 -98 3 -115 -25 -210 -45 -153 -90 -227 -199 -335 -100 -97 -123
-137 -102 -176 28 -52 80 -62 139 -27 128 78 243 223 308 389 49 125 76 357
53 465 -5 22 -14 63 -19 91 -9 44 -27 90 -62 164 -107 227 -297 388 -538 459
-136 40 -238 49 -358 31z"/>
<path d="M5680 4837 c-34 -17 -38 -71 -10 -134 20 -44 45 -120 70 -213 24 -90
34 -200 35 -380 0 -234 -13 -334 -66 -493 -21 -65 -39 -125 -39 -132 0 -23 52
-74 82 -81 23 -5 31 0 58 37 17 24 33 54 36 68 3 14 14 50 24 78 107 295 106
711 -1 1051 -58 185 -110 239 -189 199z"/>
<path d="M202 4812 c-11 -15 -27 -50 -35 -77 -8 -28 -24 -83 -36 -123 -12 -40
-33 -137 -47 -215 -21 -126 -23 -165 -20 -352 3 -187 6 -220 29 -305 39 -146
94 -290 124 -322 45 -50 144 19 127 88 -6 28 -15 51 -64 174 -47 119 -74 439
-51 610 6 47 15 117 20 155 6 39 28 122 50 185 23 63 41 129 41 147 0 40 -30
63 -82 63 -29 0 -41 -6 -56 -28z"/>
<path d="M688 4810 c-49 -38 -111 -183 -159 -370 -52 -204 -50 -483 7 -701 27
-108 119 -317 157 -356 35 -39 98 -29 122 18 22 42 18 72 -19 146 -38 74 -97
244 -117 338 -8 37 -14 129 -14 240 0 155 3 193 23 275 27 112 58 185 122 296
21 36 22 46 13 67 -12 25 -44 47 -89 61 -13 4 -30 -1 -46 -14z"/>
<path d="M5228 4794 c-36 -19 -45 -54 -22 -96 128 -240 161 -389 151 -668 -5
-123 -12 -174 -32 -247 -28 -101 -77 -223 -106 -265 -28 -38 -26 -121 3 -148
42 -39 85 -21 140 58 70 101 125 257 159 452 46 268 -5 600 -126 816 -63 113
-100 135 -167 98z"/>
<path d="M2860 4418 c-151 -86 -228 -258 -181 -407 22 -71 78 -160 118 -187
15 -10 53 -29 83 -40 l55 -22 3 -840 2 -840 -120 -4 c-137 -3 -140 -5 -140
-80 l0 -48 -348 0 c-384 0 -436 -5 -527 -53 -111 -59 -192 -157 -234 -283 -19
-58 -20 -87 -22 -486 l-1 -425 27 -68 c25 -61 46 -95 112 -183 24 -31 80 -67
134 -85 l44 -15 1 -124 c1 -139 11 -168 66 -187 39 -14 400 -14 449 -1 66 18
74 36 77 181 l4 129 559 0 559 0 0 -22 c5 -232 11 -261 65 -283 44 -19 399
-20 459 -2 61 19 76 57 76 197 l0 116 53 27 c112 56 201 178 232 317 24 107
23 796 -1 904 -31 137 -137 259 -277 319 -50 21 -65 22 -437 25 -284 2 -386 6
-392 15 -4 7 -8 31 -8 54 0 64 -19 73 -146 66 l-104 -6 0 845 0 844 53 22 c65
27 136 98 173 172 24 49 27 66 27 156 0 93 -2 106 -27 148 -44 75 -97 126
-161 157 -53 26 -71 29 -155 29 -88 0 -99 -2 -150 -32z m234 -153 c57 -27 91
-80 91 -142 0 -43 -5 -57 -26 -78 -36 -36 -55 -25 -62 37 -4 27 -12 56 -18 64
-13 16 -42 18 -67 5 -9 -4 -32 -11 -50 -14 -63 -12 -92 53 -45 105 43 48 107
56 177 23z m796 -2602 c109 -29 230 -133 283 -243 29 -60 32 -73 32 -170 0
-98 -2 -110 -32 -173 -72 -151 -220 -257 -359 -257 -66 0 -174 25 -227 51
-127 65 -217 228 -217 393 0 76 17 124 75 216 69 107 166 179 269 200 48 9 99
4 176 -17z m-516 -4 c30 -23 33 -54 9 -81 -20 -22 -42 -23 -71 -2 -26 18 -29
60 -5 86 21 23 34 23 67 -3z m-1097 -31 c40 -27 52 -63 30 -85 -11 -12 -34
-15 -87 -14 -98 2 -114 12 -107 63 7 50 18 58 81 58 35 0 60 -7 83 -22z m-312
-124 c32 -34 32 -65 -1 -103 -20 -24 -34 -31 -62 -31 -21 0 -43 4 -50 9 -30
19 35 151 74 151 8 0 26 -12 39 -26z m500 10 c58 -38 86 -136 43 -148 -32 -8
-68 -7 -68 2 0 4 -18 26 -40 50 -45 49 -49 67 -18 93 26 23 51 24 83 3z m-542
-223 c5 -5 6 -37 2 -75 l-7 -66 -54 0 c-64 0 -73 13 -66 93 3 38 9 50 26 58
24 10 85 4 99 -10z m637 -7 c13 -33 13 -90 0 -115 -7 -12 -21 -19 -40 -19 -55
0 -60 7 -60 79 0 37 3 71 7 74 3 4 24 7 45 7 32 0 40 -4 48 -26z m-335 10 c19
-8 45 -55 45 -82 0 -11 -11 -31 -25 -46 -44 -47 -114 -26 -131 39 -9 37 32 95
68 95 14 0 34 -3 43 -6z m910 -3 c24 -5 32 -13 39 -43 8 -31 6 -41 -9 -58 -16
-17 -30 -20 -117 -20 -85 0 -101 3 -118 20 -29 29 -24 95 9 103 24 7 162 5
196 -2z m-71 -380 c38 -40 39 -96 1 -128 -55 -48 -140 -16 -151 58 -5 28 -1
41 21 67 37 44 89 45 129 3z m-847 -1 c31 -11 63 -55 63 -87 0 -53 -75 -101
-129 -82 -37 13 -51 35 -51 79 0 41 14 66 48 84 33 18 32 18 69 6z m1188 -46
c40 -41 45 -76 13 -98 -33 -24 -62 -19 -97 13 -43 40 -42 83 4 109 31 18 43
14 80 -24z m-749 -10 c23 -56 -2 -104 -55 -104 -36 0 -51 19 -58 68 -6 48 14
72 63 72 31 0 37 -4 50 -36z m1562 0 c26 -13 32 -21 32 -49 0 -45 -25 -69 -63
-61 -17 3 -32 8 -35 10 -11 11 -18 74 -11 94 10 26 34 28 77 6z m-1898 -575
c0 -57 -3 -70 -19 -79 -21 -11 -189 -14 -240 -4 l-31 7 0 71 0 71 145 1 145 1
0 -68z m1667 65 c29 -6 31 -8 36 -72 3 -37 2 -71 -3 -75 -4 -5 -68 -5 -141 0
l-134 8 -3 59 c-2 32 -1 65 2 72 4 11 31 14 109 14 58 0 118 -3 134 -6z"/>
<path d="M3709 1551 c-65 -13 -171 -114 -204 -194 -17 -41 -20 -135 -5 -186
21 -75 93 -155 177 -197 46 -23 63 -26 125 -23 128 7 215 67 265 182 28 66 29
126 2 213 -17 57 -30 78 -74 121 -29 28 -67 58 -83 67 -36 18 -151 28 -203 17z
m146 -146 c59 -60 1 -142 -81 -115 -68 23 -84 85 -31 119 43 28 81 27 112 -4z"/>
<path d="M5130 4173 c-33 -13 -50 -37 -50 -73 0 -77 85 -108 134 -49 32 38 33
60 4 93 -24 26 -62 39 -88 29z"/>
<path d="M835 4158 c-28 -16 -35 -28 -35 -64 0 -71 115 -89 150 -23 19 34 3
76 -32 88 -39 14 -58 13 -83 -1z"/>
</g>
</svg>
